<?xml version="1.0" encoding="UTF-8"?>
<!DOCTYPE svg PUBLIC "-//W3C//DTD SVG 1.1//EN" "http://www.w3.org/Graphics/SVG/1.1/DTD/svg11.dtd">
<svg version="1.1" xmlns="http://www.w3.org/2000/svg" xmlns:xlink="http://www.w3.org/1999/xlink" x="0" y="0" width="180" height="120" viewBox="0, 0, 180, 120">
  <g id="Layer_1">
    <path d="M132.53,37.036 L106.344,37.036 C106.182,37.036 106.02,37.036 105.913,37.091 L105.913,35.855 C105.913,33.271 105.268,31.123 104.462,31.123 C103.659,31.123 102.688,33.221 102.259,35.798 L100.914,43.81 C100.484,46.393 102.259,48.491 104.894,48.491 L112.746,48.491 C113.551,48.491 114.304,48.382 115.002,48.167 C114.733,49.512 113.605,50.535 112.154,50.535 L101.132,50.535 C99.356,50.535 98.012,48.92 98.28,47.149 L99.408,40.427 C99.676,38.653 98.332,37.039 96.561,37.039 L41.602,37.039 C40.419,37.039 39.452,37.739 38.967,38.758 L28.643,54.516 C28.482,54.785 28.482,55.108 28.698,55.374 L30.688,57.741 C30.958,58.065 31.387,58.065 31.708,57.848 L38.755,52.311 L38.755,85.971 C38.755,87.586 40.044,88.876 41.656,88.876 L57.25,88.876 C58.864,88.876 60.153,87.586 60.153,85.971 L60.153,74.247 C60.153,72.632 61.444,71.345 63.058,71.345 L101.991,71.345 C103.605,71.345 104.897,72.632 104.897,74.247 L104.897,85.971 C104.897,87.586 106.184,88.876 107.797,88.876 L123.39,88.876 C125.005,88.876 126.293,87.586 126.293,85.971 L126.293,73.386 L118.012,73.386 C115.433,73.386 113.282,71.235 113.282,68.655 L113.282,60.533 C113.282,58.977 114.035,57.632 115.166,56.769 L115.166,66.447 C115.166,69.028 117.316,71.18 119.896,71.18 L132.64,71.18 C135.222,71.18 137.37,69.028 137.37,66.447 L137.37,41.821 C137.263,39.133 135.167,37.036 132.53,37.036 M151.407,43.81 C151.835,46.339 150.064,48.434 147.48,48.434 L139.576,48.434 L139.147,48.434 L139.147,42.682 L139.576,42.682 L141.674,42.682 C144.255,42.682 146.405,40.531 146.405,37.948 L146.405,35.855 C146.405,33.273 147.048,31.122 147.856,31.122 C148.606,31.122 149.632,33.221 150.061,35.798 L151.407,43.81" fill="#30BA78"/>
  </g>
</svg>
